<?xml version="1.0" standalone="no"?>
<!DOCTYPE svg PUBLIC "-//W3C//DTD SVG 20010904//EN"
 "http://www.w3.org/TR/2001/REC-SVG-20010904/DTD/svg10.dtd">
<svg version="1.0" xmlns="http://www.w3.org/2000/svg"
 width="327.000000pt" height="334.000000pt" viewBox="0 0 327.000000 334.000000"
 preserveAspectRatio="xMidYMid meet">

<g transform="translate(0.000000,334.000000) scale(0.100000,-0.100000)"
fill="#000000" stroke="none">
<path d="M1415 3063 c-310 -40 -608 -186 -825 -403 -196 -196 -316 -416 -381
-699 -29 -126 -37 -394 -15 -521 50 -284 187 -541 405 -761 203 -204 408 -315
702 -381 88 -20 132 -23 289 -23 201 0 311 17 464 72 537 193 912 689 933
1236 l6 137 -40 0 c-23 0 -54 -7 -69 -15 -40 -20 -82 -19 -127 5 -35 19 -56
20 -405 20 -203 0 -444 3 -535 7 l-167 6 0 228 c0 211 -2 231 -20 261 -19 32
-20 51 -20 436 l0 402 -82 -1 c-46 -1 -96 -4 -113 -6z m-197 -261 c-86 -88
-146 -161 -196 -237 -88 -135 -90 -137 -110 -131 -9 3 -77 24 -151 46 l-133
42 43 45 c111 113 272 223 412 282 66 27 228 79 251 80 5 1 -47 -57 -116 -127z
m300 -319 l-3 -138 -227 24 -228 24 22 36 c87 146 236 316 368 419 l65 50 3
-139 c1 -76 1 -201 0 -276z m-801 -119 l159 -55 -43 -127 c-41 -124 -83 -324
-83 -403 l0 -39 -221 0 -222 0 7 75 c15 160 81 362 166 500 58 95 64 105 71
105 4 0 79 -25 166 -56z m593 -122 l205 -27 3 -238 2 -237 -325 0 -325 0 4 23
c3 12 8 51 11 87 9 91 42 231 77 325 40 106 41 107 97 99 25 -3 138 -18 251
-32z m-570 -641 c0 -50 57 -324 89 -427 23 -72 41 -133 41 -136 0 -3 -72 -29
-160 -59 l-161 -54 -19 25 c-37 48 -105 174 -137 256 -38 93 -69 226 -79 333
l-7 71 217 0 c125 0 216 -4 216 -9z m780 -231 l0 -239 -32 -5 c-18 -3 -118
-15 -223 -26 -104 -11 -206 -23 -226 -26 l-37 -5 -32 83 c-41 106 -76 244 -85
333 -3 39 -9 82 -11 98 l-6 27 326 0 326 0 0 -240z m776 157 c-8 -104 -45
-266 -83 -372 -25 -69 -33 -80 -55 -83 -14 -2 -129 11 -256 27 -126 17 -235
31 -241 31 -8 0 -11 72 -11 240 l0 240 326 0 327 0 -7 -83z m567 31 c-16 -201
-94 -424 -209 -598 l-25 -37 -156 54 c-87 30 -159 56 -161 58 -3 2 11 53 31
112 42 126 63 223 78 363 l12 100 217 0 217 0 -4 -52z m-1343 -828 c0 -148 -3
-270 -6 -270 -13 0 -150 116 -212 180 -90 91 -245 301 -231 313 4 4 369 43
422 46 l27 1 0 -270z m378 246 c117 -13 215 -26 218 -28 11 -12 -142 -223
-222 -308 -75 -79 -219 -200 -237 -200 -4 0 -7 126 -7 280 0 260 1 280 18 280
9 0 113 -11 230 -24z m-905 -148 c78 -120 165 -224 270 -324 l92 -87 -40 7
c-193 34 -430 158 -610 320 -69 62 -75 70 -58 80 29 16 246 85 270 85 18 1 35
-18 76 -81z m1410 41 c73 -23 134 -44 137 -47 8 -7 -140 -141 -215 -194 -91
-65 -225 -132 -333 -167 -155 -51 -154 -53 -39 61 103 103 197 224 257 331 17
31 39 57 47 57 8 0 74 -19 146 -41z"/>
<path d="M1712 3048 c-9 -9 -12 -108 -12 -383 0 -421 -3 -405 78 -405 l42 0 0
-83 c0 -70 3 -87 19 -101 26 -24 37 -16 146 93 l90 91 97 0 98 0 0 -130 c0
-118 2 -130 19 -140 11 -5 86 -10 172 -10 l153 0 102 -101 c57 -56 109 -99
116 -97 24 8 38 53 38 126 l0 72 40 0 c27 0 47 7 60 20 19 19 20 33 20 374 0
206 -4 365 -10 380 l-10 26 -275 0 -275 0 0 124 c0 68 -3 131 -6 140 -5 14
-45 16 -348 16 -253 0 -345 -3 -354 -12z m628 -388 l0 -320 -146 0 -146 0 -74
-72 -74 -71 0 59 c0 33 -5 65 -12 72 -7 7 -34 12 -60 12 l-48 0 0 320 0 320
280 0 280 0 0 -320z m570 -280 l0 -320 -48 0 c-26 0 -53 -5 -60 -12 -7 -7 -12
-39 -12 -72 l0 -59 -74 71 -74 72 -151 0 -151 0 0 98 0 98 38 10 37 9 3 213 2
212 245 0 245 0 0 -320z"/>
<path d="M2030 2881 c-5 -11 -10 -29 -10 -40 0 -19 -6 -21 -70 -21 -59 0 -71
-3 -80 -20 -8 -15 -6 -24 10 -40 18 -18 33 -20 136 -20 115 0 115 0 109 -22
-9 -29 -53 -98 -63 -98 -4 1 -19 19 -34 40 -30 43 -61 52 -77 21 -8 -14 -4
-29 19 -65 17 -26 30 -51 30 -57 0 -6 -29 -23 -64 -39 -66 -30 -85 -52 -65
-76 18 -22 52 -16 126 22 l70 35 52 -32 c35 -22 65 -33 94 -33 38 -1 42 1 42
24 0 21 -11 30 -63 56 -35 18 -65 34 -68 37 -3 2 9 25 26 50 17 26 38 67 47
92 10 31 23 49 39 55 26 10 32 38 12 58 -7 7 -40 12 -80 12 -68 0 -68 0 -68
28 0 49 -49 72 -70 33z"/>
<path d="M2583 2570 c-31 -13 -37 -29 -77 -188 -41 -161 -43 -178 -18 -191 25
-13 49 3 57 39 7 30 7 30 80 30 73 0 73 0 80 -30 4 -16 14 -34 23 -39 22 -13
52 4 52 30 0 39 -73 311 -89 330 -18 23 -76 33 -108 19z m75 -150 l20 -80 -53
0 -53 0 21 80 c12 44 26 80 33 80 6 0 21 -36 32 -80z"/>
</g>
</svg>
